# xmcd
#
# Track frame offsets:
#	150
#	18215
#	35762
#	56020
#	72277
#	90790
#	114175
#	131995
#	152682
#	172675
#	191975
#	209522
#	229917
#	251175
#
# Disc length: 3617
#
# Revision: 2
# Processed by: cddbd v1.5.1PL0 Copyright (c) Steve Scherf et al.
# Submitted via: EasyCDDAExtractor 4.6.9.1
# Normalized: r0:TDELIM( - ),TSWAP
#
DISCID=be0e1f0e
DTITLE=Various Artist - Black and Soul
DYEAR=2003
DGENRE=Blues
TTITLE0=Sade - Paradise
TTITLE1=Harold Melvin and The Bluenotes - Don't leave me this way
TTITLE2=Esther Phillips - What a difference a day makes
TTITLE3=Luther Vendros - So amazing
TTITLE4=Regina Belle - Show me the way
TTITLE5=The Pasadenas - Tribute (Ride on)
TTITLE6=Marvin Gaye - Sexual healing
TTITLE7=Terence Trent D'Arby - Sign your name
TTITLE8=Earth Wind and Fire - After the love is gone
TTITLE9=Bill Withers - Lean on me
TTITLE10=Des'ree - Feel so high
TTITLE11=Phil Bailey - Because of you
TTITLE12=Billy Paul - Me and Mrs. Jones
TTITLE13=The Jacksons - Goin' places
EXTD=
EXTT0=
EXTT1=
EXTT2=
EXTT3=
EXTT4=
EXTT5=
EXTT6=
EXTT7=
EXTT8=
EXTT9=
EXTT10=
EXTT11=
EXTT12=
EXTT13=
PLAYORDER=
